<?xml version="1.0" encoding="utf-8"?>
<!-- Generator: Adobe Illustrator 19.0.0, SVG Export Plug-In . SVG Version: 6.00 Build 0)  -->
<svg version="1.1" id="Layer_1" xmlns="http://www.w3.org/2000/svg" xmlns:xlink="http://www.w3.org/1999/xlink" x="0px" y="0px"
	 viewBox="-79 -116.2 800 793.2" style="enable-background:new -79 -116.2 800 793.2;" xml:space="preserve">
<style type="text/css">
	.st0{fill:#F2F2F2;}
	.st1{fill:#CCCCCC;}
	.st2{fill:#6A1B9A;}
	.st3{fill:#E6E6E6;}
	.st4{fill:#FFFFFF;}
	.st5{fill:#ED9DA0;}
	.st6{fill:#2F2E43;}
	.st7{fill:#090814;}
</style>
<g transform="translate(-571.203 -218.417)">
	<path class="st0" d="M1147.4,894.4H590.3V322.8c0-121.6,98.9-220.6,220.6-220.6h116c121.6,0,220.6,98.9,220.6,220.6V894.4z"/>
	<path class="st1" d="M1031.4,894.4H590.3V322.8c-0.1-46.6,14.6-92,42.1-129.7c1-1.4,2-2.7,3.1-4.1c13.3-17.4,29.1-32.8,46.9-45.6
		c1-0.7,2-1.5,3-2.2c14.9-10.3,31.1-18.8,48-25.1c1-0.4,2-0.8,3.1-1.1c15.4-5.5,31.3-9.2,47.5-11.2c1-0.1,2-0.2,3.1-0.4
		c15.8-1.7,31.7-1.7,47.5,0c1,0.1,2.1,0.2,3.1,0.4c16.2,2,32.1,5.7,47.5,11.2c1,0.4,2.1,0.8,3.1,1.1c16.8,6.3,32.7,14.6,47.5,24.8
		c1,0.7,2.1,1.4,3.1,2.1c10,7.1,19.4,15.1,28.1,23.8c7,7,13.5,14.4,19.4,22.2c1,1.3,2,2.7,3.1,4.1c27.5,37.6,42.2,83.1,42.1,129.7
		L1031.4,894.4z"/>
	<circle class="st2" cx="995.5" cy="473.2" r="24.4"/>
	<path class="st3" d="M1290.9,895.4H493.5c-0.7,0-1.3-0.8-1.3-1.8s0.6-1.8,1.3-1.8h797.4c0.7,0,1.3,0.8,1.3,1.8
		S1291.6,895.4,1290.9,895.4z"/>
	<path class="st4" d="M910,728.8H711.6c-5.4,0-9.9-4.4-9.9-9.8V276.1c0-5.4,4.5-9.8,9.9-9.8H910c5.4,0,9.9,4.4,9.9,9.8V719
		C919.9,724.5,915.5,728.9,910,728.8L910,728.8z"/>
	<rect x="701.7" y="409.6" class="st1" width="218.3" height="3.1"/>
	<rect x="702.5" y="583.8" class="st1" width="218.3" height="3.1"/>
	<rect x="770.4" y="266.3" class="st1" width="3.1" height="464"/>
	<rect x="846.7" y="266.3" class="st1" width="3.1" height="464"/>
	<g transform="translate(1075.599 381.07)">
		<path class="st5" d="M68.4,12.3c0,1.8-0.2,3.6-0.6,5.3L50.2,92.4c-2.5,10.6-13.1,17.2-23.8,14.7c0,0,0,0,0,0l-70.5-21.9l-3.4-1.1
			c-4.5,3.1-10.1,4.3-15.5,3.2c-10.2-1.8-17.3-10.1-15.8-18.6s11-13.9,21.2-12.1c5.4,0.9,10.3,3.8,13.4,8.3l0.1,0l0.2,0l61.4,7.6
			l5.2-62.2c1-12.6,12.1-22,24.7-21C59.2-9.6,68.4,0.3,68.4,12.3L68.4,12.3z"/>
		<path class="st2" d="M68.4,12.3c0,1.8-0.2,3.6-0.6,5.3l-14.4,78c-2.5,10.6-13.1,17.2-23.8,14.7c0,0,0,0,0,0l-70.5-19.6l3.2-30.5
			l0,0l53.7,7.4l6.7-57.1c1-12.6,12.1-22,24.7-21C59.2-9.6,68.4,0.3,68.4,12.3L68.4,12.3z"/>
		
			<rect x="147.1" y="427.5" transform="matrix(-0.8049 0.5934 -0.5934 -0.8049 544.6243 697.1035)" class="st5" width="21.2" height="21.2"/>
		<path class="st6" d="M181,457.9l-36.2,26.7c-3.1,2.3-6.7,3.9-10.5,4.6l-9,1.7c-2.7,0.5-5.3-1.3-5.8-4c-0.3-1.4,0.1-2.9,1-4l11-14
			l14.4-29.7l0.1,0.1c2.1,1.9,5.3,4.8,5.5,4.9c4.5,1,7.9,0.4,10.2-1.6c4-3.6,3.2-10.7,3.2-10.8l0-0.1l0,0c0.9-0.6,2.1-0.8,3.1-0.4
			c2.1,0.8,3.2,3.5,3.3,3.9c2,0.3,7.3,6.3,7.7,6.8c3,0.6,5.1,1.7,6.2,3.4c1,1.7,1.2,3.8,0.5,5.6C185,453.8,183.3,456.3,181,457.9z"
			/>
		<rect x="-7.2" y="473" class="st5" width="21.2" height="21.2"/>
		<path class="st6" d="M10.3,513.4h-45c-3.9,0-7.7-0.9-11.2-2.5l-8.3-4c-2.5-1.2-3.5-4.2-2.3-6.6c0.6-1.3,1.8-2.3,3.2-2.6l17.1-4.7
			l29.3-15.4l0,0.1c0.5,2.8,1.4,7,1.5,7.2c3,3.4,6.1,5,9.2,4.7c5.4-0.5,8.9-6.7,9-6.8l0,0l0.1,0c1.1,0,2.1,0.6,2.8,1.5
			c1.2,1.8,0.5,4.7,0.4,5.1c1.5,1.4,2.1,9.5,2.2,10.1c2.1,2.2,3.1,4.4,3,6.4c-0.2,2-1.3,3.7-2.9,4.9C16,512.4,13.2,513.4,10.3,513.4
			L10.3,513.4z"/>
		<path class="st6" d="M100.3,142.3H-1.1l-16.2,336.3h35.7l23.1-152.9L134,448.1l33.8-30.6l-67.6-91.7L100.3,142.3z"/>
		<path class="st5" d="M77-65.8c0-20.6-16.7-37.4-37.4-37.4C19-103.1,2.2-86.4,2.2-65.8c0,16.3,10.6,30.7,26.2,35.6l7.2,47.7
			l36.8-30.7c0,0-8-10.1-12.2-21.6C70.7-41.6,77-53.3,77-65.8z"/>
		<path class="st5" d="M78,96.2L94.6,145L0.9,144l14-44.6L78,96.2z"/>
		<path class="st2" d="M69.5-27.6L28-13.2l-39.3,202.7l80.8,9.9H109L78.9-2.2C77.5-11.2,74.3-19.9,69.5-27.6L69.5-27.6L69.5-27.6z"
			/>
		<path class="st5" d="M57.9,210.6l0.7-33.3l-19.5-0.4l-0.7,33.3c-3.9,3.8-6.1,9.1-6.2,14.5c-0.2,10.4,6.6,19,15.2,19.1
			s15.7-8.1,16-18.5C63.6,219.9,61.6,214.6,57.9,210.6L57.9,210.6z"/>
		<path class="st7" d="M68.8-42.9c1.9,0.3,4.2-4.4,6.4-9c4.6-9.6,7.5-15.7,7.7-24.3C83-83.5,81-81.6,79-97.9
			c-0.7-5.4-9.9-5.4-11.7-7.9c-3.2-4.3,1.7-6.1-6.2-8.7c-14.8-4.9-21.4,2.7-30.8,3.3c-0.2,0-4.9,4.6-7.5,4.8
			c-4.5,0.4-11.1-0.3-14-7.2c-2.7-6.5-4.6,12.4-2.1,14.8c2.2,2.3,4.1,4.7,5.8,7.3c0.1,0.4-4.3-12.9-5.8-9c-1,2.8-2,21.2,0.7,21.8
			c2.2,0.5,20.6,7.5,41-6.4c0.7-0.5,0,0.3,2.6,6.4c3.2,7.7,3.9,8.1,3.8,10.2c-0.1,4.6-3.6,5.9-2.6,9c1,2.6,3.6,4.1,6.4,3.8
			c2.7-0.6,3.2-3.9,5.1-3.8c1.7,0.1,3.7,2.6,3.8,5.1c0.4,5.4-7.6,6.8-9,14.1C57.7-36.2,67-43.2,68.8-42.9L68.8-42.9z"/>
	</g>
</g>
</svg>
