<?xml version="1.0" encoding="utf-8"?>
<!-- Generator: Adobe Illustrator 19.0.0, SVG Export Plug-In . SVG Version: 6.00 Build 0)  -->
<svg version="1.1" id="OBJECTS" xmlns="http://www.w3.org/2000/svg" xmlns:xlink="http://www.w3.org/1999/xlink" x="0px" y="0px"
	 viewBox="0 0 230 200" style="enable-background:new 0 0 230 200;" xml:space="preserve">
<style type="text/css">
	.st0{fill:#A159D3;}
	.st1{fill:#6A1B9A;}
	.st2{fill:#FFFFFF;}
	.st3{fill:#F9A825;}
	.st4{opacity:0.2;}
	.st5{fill:#FF5FA0;}
	.st6{fill:#1E1328;}
	.st7{fill:#522546;}
	.st8{fill:#682741;}
	.st9{fill:#1E283A;}
	.st10{fill:#88304E;}
	.st11{opacity:0.1;}
	.st12{fill:#060D19;}
	.st13{fill:#111823;}
	.st14{fill:#311D3F;}
	.st15{fill:#877881;}
	.st16{fill:#6D6269;}
	.st17{fill:#A898A2;}
	.st18{fill:#C6B5C1;}
	.st19{fill:#FFB6B6;}
	.st20{opacity:0.7;}
	.st21{fill:#AF7068;}
	.st22{fill:#EFEFEF;}
	.st23{opacity:0.4;}
</style>
<g>
	<g>
		<g>
			<path class="st0" d="M140.1,27.3c-13.9,0-25.1,11.2-25.1,25.1c0-13.9-11.2-25.1-25.1-25.1h-85v150.4h85
				c11.6,0,21.3,7.8,24.2,18.4h0.9h0.9c2.9-10.6,12.7-18.4,24.2-18.4h85V27.3H140.1z"/>
		</g>
		<g>
			<path class="st1" d="M4.8,142.1v35.7h85c11.6,0,21.3,7.8,24.2,18.4h0.9h0.9c2.9-10.6,12.7-18.4,24.2-18.4h85V77.2L4.8,142.1z"/>
		</g>
	</g>
	<g>
		<g>
			<g>
				<path class="st2" d="M92.5,39.9H16.4v126.4h76.1c6.8,0,19.2,3.1,22.5,16.4V62.4C115,50,104.9,39.9,92.5,39.9z"/>
			</g>
			<g>
				<path class="st2" d="M137.5,39.9h76.1v126.4h-76.1c-6.8,0-19.2,3.1-22.5,16.4V62.4C115,50,125.1,39.9,137.5,39.9z"/>
			</g>
		</g>
		<path class="st3" d="M115,174.4c-3.3-13.3-15.7-16.4-22.5-16.4H16.4v8.3h76.1c6.8,0,19.2,3.1,22.5,16.4
			c3.3-13.3,15.7-16.4,22.5-16.4h76.1V158h-76.1C130.7,158,118.3,161.2,115,174.4z"/>
	</g>
	<g>
		<g>
			<path class="st2" d="M114.9,59.7c0,0-1-18.7,25.5-25.5S207,18,207,18v132.3l-66.2,12.1c0,0-23.8-0.4-25.8,16.1"/>
		</g>
		<g>
			<path class="st3" d="M116.1,179.1l-2.3-0.3c2-16.7,25-17.5,26.8-17.5l65.1-11.9V19.5c-7.3,1.7-41.6,9.8-65.1,15.8
				c-25.3,6.5-24.7,24.2-24.7,24.4l-2.3,0.1c0-0.2-0.7-19.7,26.4-26.7c26.2-6.7,66.1-16,66.5-16.1l1.4-0.3v134.7l-67.3,12.3
				C140.6,163.6,117.9,163.8,116.1,179.1z"/>
		</g>
	</g>
	<g>
		<g>
			<path class="st2" d="M187.9,5.3v138.2l-56.4,16.4c0,0-15.7,3.5-16.5,14.6V49c0,0,0.2-20.2,17-26.4
				C148.9,16.3,187.9,5.3,187.9,5.3z"/>
		</g>
		<g>
			<path class="st3" d="M116.1,174.5l-2.3-0.1V49c0-0.2,0.4-21,17.8-27.5c16.7-6.2,55.6-17.2,56-17.3l1.4-0.4v140.5l-57.2,16.6
				C131.6,161,116.8,164.4,116.1,174.5z M186.8,6.8c-7.2,2-39.6,11.3-54.4,16.8c-15.9,5.9-16.3,25.2-16.3,25.4V168
				c4.6-6.8,14.6-9.1,15.2-9.2l55.5-16.1V6.8z"/>
		</g>
	</g>
	<g>
		<g>
			<path class="st3" d="M93.2,56.2v20.5h-61V56.2H93.2 M95.5,53.9H30v25h65.5V53.9L95.5,53.9z"/>
		</g>
		<g>
			<rect x="30" y="87.2" class="st3" width="65.5" height="58.1"/>
		</g>
	</g>
	<g id="XMLID_1_">
		<g id="XMLID_364_" class="st4">
			<g id="XMLID_2_">
				<path id="XMLID_366_" class="st5" d="M86,117.3c0,0.3,0,1.2-0.1,2.5c-0.1,1.3-0.4,2.9-0.9,4.6c-0.5,1.7-1.2,3.6-2.3,5.5
					c-1,1.9-2.4,3.7-4.3,5.4c-1.9,1.6-4.2,3-7,4.1c-2.8,1.1-6.3,1.6-10.3,1.6c-3.3,0-6.2-0.4-8.9-1.2c-2.6-0.8-4.9-2-6.8-3.6
					c-1.9-1.6-3.4-3.7-4.4-6.2c-1.1-2.5-1.6-5.6-1.6-9.1c0-3,0.5-5.9,1.4-8.7c0.9-2.9,2.4-5.4,4.3-7.6c1.9-2.2,4.5-4,7.5-5.3
					c3.1-1.3,6.7-2,11-2c7.3,0,12.9,1.7,16.7,5.2C84.1,105.9,86,110.8,86,117.3z"/>
			</g>
		</g>
		<g id="XMLID_89_">
			<g id="XMLID_307_">
				<g id="XMLID_355_">
					<g id="XMLID_359_">
						<g id="XMLID_362_">
							<path id="XMLID_363_" class="st6" d="M62.6,136.4c0,0-1.1,4.6-0.9,5c0,0,8-0.4,1.8-1.1l0.6-1.9L62.6,136.4z"/>
						</g>
						<g id="XMLID_360_">
							<path id="XMLID_361_" class="st7" d="M65.7,140.7c-0.5,0.3-3.5,0.4-4.1,0.5l0,0.2C61.7,141.4,66.6,141.1,65.7,140.7z"/>
						</g>
					</g>
					<g id="XMLID_356_">
						<g id="XMLID_357_">
							<path id="XMLID_358_" class="st8" d="M54.2,117.4c0,0-2.6,4.7-0.4,5.9c1.5,0.8,9.9,5.4,9.9,5.4s-1.9,8-1.9,9.4l2.7,0.7
								c0,0,3.8-11,3.1-12.1c-0.7-1.1-7.8-5.7-7.8-5.7l0.6-1.6L54.2,117.4z"/>
						</g>
					</g>
				</g>
				<g id="XMLID_308_">
					<g id="XMLID_330_">
						<g id="XMLID_342_">
							<g id="XMLID_353_">
								<path id="XMLID_354_" class="st6" d="M73.7,112.1c0,0.1,0.1,0.2,0.2,0.2l0.2,0c0.1,0,0.2-0.1,0.2-0.2l0,0
									c0-0.1-0.1-0.2-0.2-0.2l-0.2,0C73.7,111.9,73.7,112,73.7,112.1L73.7,112.1z"/>
							</g>
							<g id="XMLID_351_">
								<path id="XMLID_352_" class="st6" d="M73.8,111.5c0,0.1,0.2,0.2,0.3,0.1l0.2-0.1c0.1,0,0.2-0.2,0.2-0.3l0,0
									c0-0.1-0.2-0.2-0.3-0.1l-0.2,0.1C73.9,111.2,73.8,111.4,73.8,111.5L73.8,111.5z"/>
							</g>
							<g id="XMLID_349_">
								<path id="XMLID_350_" class="st6" d="M73.7,111c0.1,0.1,0.2,0.1,0.3,0.1l0.6-0.3c0.1-0.1,0.1-0.2,0.1-0.3l0,0
									c-0.1-0.1-0.2-0.1-0.3-0.1l-0.6,0.3C73.7,110.8,73.7,110.9,73.7,111L73.7,111z"/>
							</g>
							<g id="XMLID_347_">
								<path id="XMLID_348_" class="st6" d="M73.9,111.8l0.2,0c0.1,0,0.1,0,0.1,0l-0.1,0.4l-0.2,0c-0.1,0-0.2-0.1-0.2-0.2
									S73.7,111.9,73.9,111.8z"/>
							</g>
							<g id="XMLID_345_">
								<path id="XMLID_346_" class="st6" d="M74,111.2l0.2-0.1c0,0,0.1,0,0.1,0l-0.1,0.4l-0.1,0c-0.1,0-0.3,0-0.3-0.1
									C73.8,111.4,73.9,111.2,74,111.2z"/>
							</g>
							<g id="XMLID_343_">
								<path id="XMLID_344_" class="st6" d="M73.8,110.7l0.6-0.3c0,0,0,0,0.1,0l-0.1,0.5l-0.4,0.2c-0.1,0.1-0.2,0-0.3-0.1
									C73.7,110.9,73.7,110.8,73.8,110.7z"/>
							</g>
						</g>
						<g id="XMLID_340_">
							<path id="XMLID_341_" class="st6" d="M70.9,112.2c0.3-1.5,0.4-1.6,0.4-1.6c0.5,0,0.3,0.8,0.2,1c0.5,0.4,0.3,1.2,0.3,1.2
								l1.4,0.3c-0.1,0.8-1.4,1-1.4,1l-0.7-0.3l-0.5-0.1L70.9,112.2z"/>
						</g>
						<g id="XMLID_331_">
							<g id="XMLID_338_">
								<polygon id="XMLID_339_" class="st6" points="72.2,113.8 70.6,114.8 69.7,113.5 71.1,112.6 								"/>
							</g>
							<g id="XMLID_332_">
								<g id="XMLID_336_" class="st4">
									
										<rect id="XMLID_86_" x="70" y="113.4" transform="matrix(-0.5415 -0.8407 0.8407 -0.5415 13.3864 235.1497)" class="st9" width="1.6" height="1"/>
								</g>
								<g id="XMLID_333_">
									<g id="XMLID_334_" class="st4">
										<path id="XMLID_85_" class="st9" d="M71.7,112.9l0-0.1l1.4,0.3c0,0,0,0.1,0,0.1L71.7,112.9z"/>
									</g>
								</g>
							</g>
						</g>
					</g>
					<g id="XMLID_314_">
						<g id="XMLID_323_">
							<g id="XMLID_328_">
								<path id="XMLID_329_" class="st10" d="M71.2,112.4c0,0.1,0.1,0.3,0.2,0.3l2.1,0.5c0.1,0,0.3-0.1,0.3-0.2l0.9-4.4
									c0-0.1-0.1-0.3-0.2-0.3l-2.1-0.5c-0.1,0-0.3,0.1-0.3,0.2L71.2,112.4z"/>
							</g>
							<g id="XMLID_326_">
								<path id="XMLID_327_" class="st2" d="M71.4,112.2c0,0.1,0,0.1,0.1,0.2l2.1,0.4c0.1,0,0.1,0,0.2-0.1l0.9-4
									c0-0.1,0-0.1-0.1-0.2l-2.1-0.4c-0.1,0-0.1,0-0.2,0.1L71.4,112.2z"/>
							</g>
							<g id="XMLID_324_" class="st4">
								<circle id="XMLID_84_" class="st2" cx="72.5" cy="112.8" r="0.1"/>
							</g>
						</g>
						<g id="XMLID_315_">
							<g id="XMLID_320_">
								<path id="XMLID_321_" class="st1" d="M72.8,111.6C72.8,111.6,72.8,111.6,72.8,111.6C72.8,111.6,72.8,111.6,72.8,111.6
									L72.8,111.6c0,0,1.6-1.3,0.7-1.9c-0.1-0.1-0.2-0.1-0.3-0.1c-0.1,0-0.2,0-0.2,0C71.8,109.7,72.8,111.6,72.8,111.6L72.8,111.6
									z"/>
							</g>
							<g id="XMLID_318_" class="st11">
								<path id="XMLID_83_" class="st12" d="M72.6,109.7l0.8,1.2c-0.3,0.4-0.6,0.6-0.6,0.7l0,0c0,0,0,0,0,0c0,0,0,0,0,0l0,0
									C72.8,111.6,72,110.2,72.6,109.7z"/>
							</g>
							<g id="XMLID_316_">
								<circle id="XMLID_317_" class="st2" cx="73.1" cy="110.3" r="0.3"/>
							</g>
						</g>
					</g>
					<g id="XMLID_309_">
						<g id="XMLID_312_">
							<path id="XMLID_313_" class="st1" d="M71.7,114.5l-1.4-1.8l-5.1,2.7c-0.8-2.2-1.2-4.7-1.2-4.8v-0.2c-1,1.8-0.9,4.1-0.5,6
								l-0.6,0.3l1,1.1c0.3,1,0.5,1.6,0.5,1.6s0.3-0.1,0.7-0.3l0.1,0.2L71.7,114.5z"/>
						</g>
						<g id="XMLID_310_" class="st4">
							<path id="XMLID_82_" class="st13" d="M71.7,114.5l-1.4-1.8l-5.1,2.7c-0.8-2.2-1.2-4.7-1.2-4.8v-0.2c-1,1.8-0.9,4.1-0.5,6
								l-0.6,0.3l1,1.1c0.3,1,0.5,1.6,0.5,1.6s0.3-0.1,0.7-0.3l0.1,0.2L71.7,114.5z"/>
						</g>
					</g>
				</g>
			</g>
			<g id="XMLID_164_">
				<g id="XMLID_305_" class="st11">
					<ellipse id="XMLID_22_" class="st14" cx="62" cy="144.4" rx="17.5" ry="0.9"/>
				</g>
				<g id="XMLID_165_">
					<g id="XMLID_255_">
						<g id="XMLID_258_">
							<g id="XMLID_8_">
								<g id="XMLID_9_">
									<path id="XMLID_302_" class="st15" d="M72.7,129.9c3.8,0,6.8,3.1,6.8,6.9s-3.1,6.9-6.8,6.9c-3.8,0-6.8-3.1-6.8-6.9
										S69,129.9,72.7,129.9 M72.7,129c-4.2,0-7.7,3.5-7.7,7.8c0,4.3,3.4,7.8,7.7,7.8c4.2,0,7.7-3.5,7.7-7.8
										C80.4,132.5,77,129,72.7,129L72.7,129z"/>
								</g>
								<g id="XMLID_12_">
									<g id="XMLID_13_">
										<path id="XMLID_300_" class="st14" d="M80.2,136.8c0,2.5-1.3,4.9-3.4,6.3c-2.1,1.4-4.9,1.6-7.1,0.5
											c-2.2-1-3.8-3.1-4.2-5.6c-0.5-2.5,0.5-5.1,2.3-6.8c2.2-2,5.4-2.5,8.1-1.3C78.5,131.2,80.1,133.9,80.2,136.8
											c0,0.4,0.5,0.4,0.5,0c0-2.4-1-4.6-2.8-6.1c-1.8-1.5-4.1-2.2-6.4-1.8c-4.8,0.7-7.8,5.9-6.3,10.4c1.2,3.7,5,6,8.8,5.4
											c3.8-0.6,6.7-4.1,6.7-7.9C80.7,136.4,80.2,136.4,80.2,136.8z"/>
									</g>
								</g>
								<g id="XMLID_14_">
									<g id="XMLID_15_">
										<rect id="XMLID_81_" x="72.6" y="129.8" class="st15" width="0.1" height="14.4"/>
									</g>
									<g id="XMLID_294_">
										<rect id="XMLID_80_" x="65.5" y="136.9" class="st15" width="14.2" height="0.1"/>
									</g>
									<g id="XMLID_292_">
										
											<rect id="XMLID_79_" x="65.5" y="136.9" transform="matrix(0.704 0.7102 -0.7102 0.704 118.7774 -11.0534)" class="st15" width="14.3" height="0.1"/>
									</g>
									<g id="XMLID_290_">
										
											<rect id="XMLID_78_" x="72.6" y="129.8" transform="matrix(0.711 0.7032 -0.7032 0.711 117.3199 -11.4998)" class="st15" width="0.1" height="14.3"/>
									</g>
								</g>
								<g id="XMLID_16_">
									<g id="XMLID_287_">
										
											<rect id="XMLID_77_" x="65.5" y="136.9" transform="matrix(0.3853 0.9228 -0.9228 0.3853 171.0516 17.153)" class="st15" width="14.3" height="0.1"/>
									</g>
									<g id="XMLID_285_">
										
											<rect id="XMLID_76_" x="72.6" y="129.8" transform="matrix(0.392 0.9199 -0.9199 0.392 170.178 16.4409)" class="st15" width="0.1" height="14.3"/>
									</g>
									<g id="XMLID_283_">
										
											<rect id="XMLID_75_" x="65.5" y="136.9" transform="matrix(0.925 0.38 -0.38 0.925 57.4952 -17.3315)" class="st15" width="14.2" height="0.1"/>
									</g>
									<g id="XMLID_281_">
										
											<rect id="XMLID_74_" x="72.6" y="129.8" transform="matrix(0.9274 0.3741 -0.3741 0.9274 56.5138 -17.2319)" class="st15" width="0.1" height="14.3"/>
									</g>
								</g>
								<g id="XMLID_17_">
									<g id="XMLID_278_">
										
											<rect id="XMLID_73_" x="65.5" y="136.9" transform="matrix(0.1953 0.9807 -0.9807 0.1953 192.7957 38.9688)" class="st15" width="14.4" height="0.1"/>
									</g>
									<g id="XMLID_276_">
										
											<rect id="XMLID_72_" x="72.6" y="129.9" transform="matrix(0.1984 0.9801 -0.9801 0.1984 192.4928 38.5987)" class="st15" width="0.1" height="14.2"/>
									</g>
									<g id="XMLID_274_">
										
											<rect id="XMLID_71_" x="65.5" y="136.9" transform="matrix(0.8303 0.5573 -0.5573 0.8303 88.6665 -17.2444)" class="st15" width="14.3" height="0.1"/>
									</g>
									<g id="XMLID_272_">
										
											<rect id="XMLID_70_" x="72.6" y="129.8" transform="matrix(0.8344 0.5511 -0.5511 0.8344 87.5175 -17.3594)" class="st15" width="0.1" height="14.3"/>
									</g>
								</g>
								<g id="XMLID_18_">
									<g id="XMLID_269_">
										
											<rect id="XMLID_69_" x="65.5" y="136.9" transform="matrix(0.5588 0.8293 -0.8293 0.5588 145.65 0.1862)" class="st15" width="14.3" height="0.1"/>
									</g>
									<g id="XMLID_267_">
										
											<rect id="XMLID_68_" x="72.6" y="129.8" transform="matrix(0.5645 0.8254 -0.8254 0.5645 144.6958 -0.3187)" class="st15" width="0.1" height="14.3"/>
									</g>
									<g id="XMLID_265_">
										
											<rect id="XMLID_67_" x="65.5" y="136.9" transform="matrix(0.982 0.1889 -0.1889 0.982 27.1855 -11.2584)" class="st15" width="14.2" height="0.1"/>
									</g>
									<g id="XMLID_263_">
										
											<rect id="XMLID_66_" x="72.6" y="129.8" transform="matrix(0.9825 0.1864 -0.1864 0.9825 26.8052 -11.1412)" class="st15" width="0.1" height="14.4"/>
									</g>
								</g>
							</g>
							<g id="XMLID_21_">
								<ellipse id="XMLID_260_" class="st15" cx="72.7" cy="136.8" rx="1.2" ry="1.2"/>
							</g>
						</g>
						<g id="XMLID_256_">
							<circle id="XMLID_257_" class="st14" cx="72.7" cy="136.8" r="0.5"/>
						</g>
					</g>
					<g id="XMLID_210_">
						<g id="XMLID_211_">
							<g id="XMLID_24_">
								<path id="XMLID_252_" class="st15" d="M50.4,129.9c3.8,0,6.8,3.1,6.8,6.9s-3.1,6.9-6.8,6.9c-3.8,0-6.8-3.1-6.8-6.9
									S46.6,129.9,50.4,129.9 M50.4,129c-4.2,0-7.7,3.5-7.7,7.8c0,4.3,3.4,7.8,7.7,7.8s7.7-3.5,7.7-7.8
									C58.1,132.5,54.6,129,50.4,129L50.4,129z"/>
							</g>
							<g id="XMLID_27_">
								<g id="XMLID_28_">
									<path id="XMLID_250_" class="st14" d="M57.8,136.8c0,2.5-1.3,4.9-3.4,6.3c-2.1,1.4-4.9,1.6-7.1,0.5c-2.2-1-3.8-3.1-4.2-5.6
										c-0.5-2.5,0.5-5.1,2.3-6.8c2.2-2,5.4-2.5,8.1-1.3C56.1,131.2,57.8,133.9,57.8,136.8c0,0.4,0.5,0.4,0.5,0
										c0-2.4-1-4.6-2.8-6.1c-1.8-1.5-4.1-2.2-6.4-1.8c-4.8,0.7-7.8,5.9-6.3,10.4c1.2,3.7,5,6,8.8,5.4c3.8-0.6,6.7-4.1,6.7-7.9
										C58.3,136.4,57.8,136.4,57.8,136.8z"/>
								</g>
							</g>
							<g id="XMLID_29_">
								<g id="XMLID_30_">
									<rect id="XMLID_65_" x="50.3" y="129.8" class="st15" width="0.1" height="14.4"/>
								</g>
								<g id="XMLID_244_">
									<rect id="XMLID_64_" x="43.2" y="136.9" class="st15" width="14.2" height="0.1"/>
								</g>
								<g id="XMLID_242_">
									
										<rect id="XMLID_63_" x="43.1" y="136.9" transform="matrix(0.704 0.7102 -0.7102 0.704 112.1581 4.8294)" class="st15" width="14.3" height="0.1"/>
								</g>
								<g id="XMLID_240_">
									
										<rect id="XMLID_62_" x="50.3" y="129.8" transform="matrix(0.71 0.7042 -0.7042 0.71 111.0375 4.3105)" class="st15" width="0.1" height="14.3"/>
								</g>
							</g>
							<g id="XMLID_31_">
								<g id="XMLID_237_">
									
										<rect id="XMLID_61_" x="43.1" y="136.9" transform="matrix(0.3853 0.9228 -0.9228 0.3853 157.3052 37.7911)" class="st15" width="14.3" height="0.1"/>
								</g>
								<g id="XMLID_235_">
									
										<rect id="XMLID_60_" x="50.3" y="129.8" transform="matrix(0.3904 0.9206 -0.9206 0.3904 156.7596 37.2056)" class="st15" width="0.1" height="14.3"/>
								</g>
								<g id="XMLID_233_">
									
										<rect id="XMLID_59_" x="43.2" y="136.9" transform="matrix(0.925 0.38 -0.38 0.925 55.8178 -8.8335)" class="st15" width="14.2" height="0.1"/>
								</g>
								<g id="XMLID_231_">
									
										<rect id="XMLID_58_" x="50.3" y="129.8" transform="matrix(0.9277 0.3734 -0.3734 0.9277 54.784 -8.869)" class="st15" width="0.1" height="14.3"/>
								</g>
							</g>
							<g id="XMLID_32_">
								<g id="XMLID_228_">
									
										<rect id="XMLID_57_" x="43.1" y="136.9" transform="matrix(0.1953 0.9807 -0.9807 0.1953 174.7993 60.9029)" class="st15" width="14.4" height="0.1"/>
								</g>
								<g id="XMLID_226_">
									
										<rect id="XMLID_56_" x="50.3" y="129.9" transform="matrix(0.1984 0.9801 -0.9801 0.1984 174.5641 60.5193)" class="st15" width="0.1" height="14.2"/>
								</g>
								<g id="XMLID_224_">
									
										<rect id="XMLID_55_" x="43.1" y="136.9" transform="matrix(0.8303 0.5573 -0.5573 0.8303 84.8707 -4.7803)" class="st15" width="14.3" height="0.1"/>
								</g>
								<g id="XMLID_222_">
									
										<rect id="XMLID_54_" x="50.3" y="129.8" transform="matrix(0.8338 0.552 -0.552 0.8338 83.9666 -4.9978)" class="st15" width="0.1" height="14.3"/>
								</g>
							</g>
							<g id="XMLID_33_">
								<g id="XMLID_219_">
									
										<rect id="XMLID_53_" x="43.1" y="136.9" transform="matrix(0.5588 0.8293 -0.8293 0.5588 135.7822 18.7338)" class="st15" width="14.3" height="0.1"/>
								</g>
								<g id="XMLID_217_">
									
										<rect id="XMLID_52_" x="50.3" y="129.8" transform="matrix(0.5659 0.8245 -0.8245 0.5659 134.766 18.0056)" class="st15" width="0.1" height="14.3"/>
								</g>
								<g id="XMLID_215_">
									
										<rect id="XMLID_51_" x="43.2" y="136.9" transform="matrix(0.982 0.1889 -0.1889 0.982 26.7825 -7.0332)" class="st15" width="14.2" height="0.1"/>
								</g>
								<g id="XMLID_213_">
									
										<rect id="XMLID_50_" x="50.3" y="129.8" transform="matrix(0.9824 0.1868 -0.1868 0.9824 26.4655 -6.9811)" class="st15" width="0.1" height="14.4"/>
								</g>
							</g>
						</g>
					</g>
					<g id="XMLID_193_">
						<g id="XMLID_206_">
							<path id="XMLID_43_" class="st16" d="M59.1,140.5C59.1,140.5,59.1,140.5,59.1,140.5l-9.1-3.1c-0.1,0-0.1-0.1-0.1-0.2l0.3-1.2
								c0-0.1,0.1-0.1,0.1-0.1l9.3,0.3c0,0,0.1,0,0.1,0c0,0,0,0.1,0,0.1l-0.5,4C59.2,140.5,59.2,140.5,59.1,140.5
								C59.1,140.5,59.1,140.5,59.1,140.5z M50.2,137.2l8.8,3l0.5-3.7l-9-0.3L50.2,137.2z"/>
						</g>
						<g id="XMLID_201_">
							<g id="XMLID_204_">
								<path id="XMLID_205_" class="st15" d="M59.5,139.1l3,2.3c0,0-0.5,0.5-0.4,0.5c0.2,0-2.8-2.4-2.8-2.4L59.5,139.1z"/>
							</g>
							<g id="XMLID_202_">
								<path id="XMLID_203_" class="st14" d="M63.6,142.2l-2.3,0.1c0,0,0-1,0.1-1s2.1-0.2,2.1-0.2L63.6,142.2z"/>
							</g>
						</g>
						<g id="XMLID_196_">
							<g id="XMLID_199_">
								<ellipse id="XMLID_200_" class="st17" cx="59.5" cy="138.6" rx="2.3" ry="2.4"/>
							</g>
							<g id="XMLID_197_">
								<ellipse id="XMLID_198_" class="st15" cx="59.5" cy="138.6" rx="2" ry="2"/>
							</g>
						</g>
						<g id="XMLID_194_">
							<ellipse id="XMLID_195_" class="st15" cx="50.4" cy="136.8" rx="1.2" ry="1.2"/>
						</g>
					</g>
					<g id="XMLID_166_">
						<g id="XMLID_182_">
							<g id="XMLID_185_">
								<g id="XMLID_191_">
									<path id="XMLID_42_" class="st1" d="M72.8,137.1c-0.2,0-0.3-0.1-0.4-0.2l-4.5-12c-0.1-0.2,0-0.4,0.2-0.5
										c0.2-0.1,0.4,0,0.5,0.2l4.5,12c0.1,0.2,0,0.4-0.2,0.5C72.9,137.1,72.9,137.1,72.8,137.1z"/>
								</g>
								<g id="XMLID_186_">
									<path id="XMLID_23_" class="st1" d="M59.6,138.8C59.6,138.8,59.6,138.8,59.6,138.8C59.6,138.8,59.6,138.8,59.6,138.8
										l-9.3-1.7c-0.1,0-0.1-0.1-0.2-0.1c0-0.1,0-0.2,0-0.2l5.7-9.9l-0.9-3.1c0-0.1,0-0.3,0.2-0.3c0.1,0,0.3,0,0.3,0.2l0.9,3H69
										c0.1,0,0.2,0,0.2,0.1l0.4,0.7c0.1,0.1,0,0.2,0,0.3l-9.7,11C59.7,138.8,59.7,138.8,59.6,138.8
										C59.6,138.8,59.6,138.8,59.6,138.8C59.6,138.8,59.6,138.8,59.6,138.8z M50.8,136.7l8.5,1.6L56,127.5L50.8,136.7z
										 M56.5,127.1l3.3,10.9l9.3-10.5l-0.2-0.4H56.5z"/>
								</g>
							</g>
							<g id="XMLID_183_">
								<path id="XMLID_184_" class="st14" d="M53.1,122.9l4.7,0.4c0,0,0.1,0.7-0.6,0.8c-0.6,0.1-3.3,0.8-3.8,0.3
									C52.8,124,52.5,123.3,53.1,122.9z"/>
							</g>
						</g>
						<g id="XMLID_176_">
							<g id="XMLID_179_">
								<g id="XMLID_37_">
									<path id="XMLID_181_" class="st15" d="M68.1,125.6c0.3-0.1,0.6-0.2,0.9-0.3l-0.3-0.7l3.2-0.7c0.3,0,0.4-0.3,0.4-0.5
										c0-0.3-0.3-0.4-0.5-0.4l-3.8,0.8c-0.1,0-0.3,0.1-0.3,0.2c-0.1,0.1-0.1,0.3,0,0.4L68.1,125.6z"/>
								</g>
							</g>
							<g id="XMLID_177_">
								<path id="XMLID_178_" class="st6" d="M69.8,122.5c0,0,1.4,0.1,1.5,0.5c0.1,0.4-0.1,0.8-0.6,1.4c-0.5,0.5-0.8-0.1-0.8-0.1
									s1-0.1,0.8-0.6c-0.2-0.5-1.1,0.6-1.6-0.3C68.5,122.4,69.8,122.5,69.8,122.5z"/>
							</g>
						</g>
						<g id="XMLID_167_">
							<g id="XMLID_174_">
								<ellipse id="XMLID_175_" class="st18" cx="59.5" cy="138.5" rx="0.8" ry="0.8"/>
							</g>
							<g id="XMLID_172_">
								<path id="XMLID_173_" class="st17" d="M59.4,138.8l-3-2.3c0,0,0.5-0.5,0.4-0.5c-0.2,0,2.9,2.4,2.9,2.4L59.4,138.8z"/>
							</g>
							<g id="XMLID_170_">
								<path id="XMLID_171_" class="st14" d="M55.6,135.8l2.8,0.8c0,0-0.2,0.8-0.3,0.8c-0.1,0-2.7-0.8-2.7-0.8L55.6,135.8z"/>
							</g>
							<g id="XMLID_168_">
								<circle id="XMLID_169_" class="st17" cx="59.5" cy="138.5" r="0.4"/>
							</g>
						</g>
					</g>
				</g>
			</g>
			<g id="XMLID_90_">
				<g id="XMLID_153_">
					<g id="XMLID_159_">
						<g id="XMLID_35_">
							<path id="XMLID_163_" class="st6" d="M58.6,132.8c0,0-2.1,2.8-2.1,3.3c0,0,7.6,2.4,2.1-0.4l1.2-1.6L58.6,132.8z"/>
						</g>
						<g id="XMLID_36_">
							<path id="XMLID_161_" class="st7" d="M60.5,136.8c-0.6,0.1-3.4-0.8-4-1l0,0.2C56.5,136,61.2,137.5,60.5,136.8z"/>
						</g>
					</g>
					<g id="XMLID_154_">
						<g id="XMLID_157_">
							<path id="XMLID_158_" class="st10" d="M54.2,117.4c0,0-2.6,4.7-0.4,5.9c1.5,0.8,8.6,3.8,8.6,3.8s-4.3,4.8-5.3,7l2.1,1.2
								c0,0,8.5-8.1,8.1-9.3c-0.5-1.7-6.9-4.6-6.9-4.6l0.6-1.8L54.2,117.4z"/>
						</g>
						<g id="XMLID_155_">
							<path id="XMLID_156_" class="st8" d="M55.8,120.4c1.5,0.2,3,0.5,4.5,0.7c0.1,0,0.2,0,0.2,0l0.5-1.5l-6.9-2.2
								c0,0-0.6,1.1-1,2.4C54.1,120.1,55,120.2,55.8,120.4z"/>
						</g>
					</g>
				</g>
				<g id="XMLID_122_">
					<g id="XMLID_139_">
						<g id="XMLID_38_">
							<path id="XMLID_152_" class="st19" d="M62,103.5c0,0,0.3-2,3.2-2c2.8,0,2.9,3.2,2.1,5.3c-0.8,2.1-1.8,2.5-3,2.2
								C63.2,108.6,61,107.3,62,103.5z"/>
						</g>
						<g id="XMLID_41_" class="st20">
							<g id="XMLID_5_">
								<path id="XMLID_150_" class="st21" d="M62.3,105.1c0,0,0-0.1-0.1-0.1c0,0,0,0,0-0.1c0,0,0,0,0-0.1c0,0,0,0,0-0.1
									c0,0,0,0,0-0.1c0,0,0,0,0.1,0c0,0,0,0,0,0l0,0l0,0c0-0.1,0.1-0.2,0.1-0.3c0-0.1,0-0.2,0-0.3c0,0,0,0,0-0.1l0,0c0,0,0,0,0,0
									l0,0c0,0,0,0,0,0c0,0,0,0,0,0c0,0,0,0-0.1,0c0,0,0,0-0.1,0c0,0,0,0-0.1,0c0,0-0.1,0.1-0.1,0.1c0,0,0-0.1,0.1-0.1
									c0,0,0.1-0.1,0.1-0.1c0,0,0.1,0,0.1,0c0,0,0.1,0,0.1,0c0,0,0,0,0,0l0,0c0,0,0,0,0,0l0,0c0,0,0,0.1,0,0.1c0,0,0,0.1,0,0.1
									c0,0,0,0.1,0,0.1c0,0.1,0,0.1,0,0.2c0,0.1-0.1,0.2-0.1,0.3l0,0l0,0l0,0c0,0,0,0,0,0c0,0,0,0,0,0c0,0,0,0,0,0c0,0,0,0,0,0
									c0,0,0,0,0,0C62.3,104.9,62.3,105,62.3,105.1z"/>
							</g>
						</g>
						<g id="XMLID_44_">
							<path id="XMLID_147_" class="st21" d="M66.7,104.9C66.7,104.9,66.7,104.9,66.7,104.9c0,0.1,0,0.2,0,0.3c0,0.2,0,0.4,0,0.6
								c0,0.2-0.1,0.4-0.1,0.6c0,0.1,0,0.1,0,0.2c0,0,0,0.1,0,0.1s0,0,0-0.1c0,0,0-0.1,0-0.2c0-0.2,0-0.4,0-0.6
								c0-0.2,0.1-0.4,0.1-0.6C66.7,105.1,66.7,105,66.7,104.9C66.7,104.9,66.7,104.9,66.7,104.9z"/>
						</g>
						<g id="XMLID_45_">
							<path id="XMLID_145_" class="st22" d="M67.1,105.9c-0.8-0.8-3.9-0.7-5.1-0.7c-0.2,2.7,1.4,3.5,2.4,3.7c1.1,0.3,2.2-0.1,3-2.2
								c0-0.1,0.1-0.2,0.1-0.4C67.4,106.3,67.2,106.1,67.1,105.9z"/>
						</g>
						<g id="XMLID_46_" class="st11">
							<path id="XMLID_20_" class="st6" d="M65.7,108.2c-1.2-0.8-2.4-1.3-3.7-1.9c0.3,1.8,1.6,2.4,2.4,2.6c0.7,0.2,1.3,0.1,1.9-0.4
								C66.1,108.5,65.9,108.4,65.7,108.2z"/>
						</g>
						<g id="XMLID_47_">
							<path id="XMLID_141_" class="st6" d="M62,106.6c0,0,0,0.3-0.1,0.2c-0.2-0.4-0.5-1.8-0.3-3.1c0.3-1.7,1-2.6,1-2.6l2,0.6
								c0,0,0.2,1.8-1.6,2.5l-0.4,1.2l-0.3,0c0,0,0.5-1.3-0.1-1.5c-0.5-0.2-0.7,1.1-0.1,1.5"/>
						</g>
					</g>
					<g id="XMLID_130_">
						<g id="XMLID_137_">
							<path id="XMLID_138_" class="st6" d="M65.7,105.1C65.7,105.1,65.7,105.1,65.7,105.1c0-0.1,0-0.2,0-0.3c0-0.1,0-0.2-0.1-0.2
								c0,0,0-0.1-0.1-0.1c0,0,0,0-0.1,0c0,0,0,0-0.1,0c0,0-0.1,0-0.1,0c0,0-0.1,0-0.1,0c-0.1,0-0.1,0.1-0.2,0.2
								c0,0.1-0.1,0.1-0.1,0.2c0,0,0,0.1,0,0.1s0,0,0,0c0,0,0,0,0-0.1c0,0,0-0.1,0.1-0.2c0,0,0-0.1,0.1-0.1c0,0,0.1-0.1,0.1-0.1
								c0,0,0.1-0.1,0.2-0.1c0.1,0,0.1,0,0.2,0c0,0,0.1,0.1,0.1,0.1c0,0,0.1,0.1,0.1,0.1c0,0.1,0,0.2,0,0.3
								C65.8,104.9,65.7,105,65.7,105.1C65.7,105.1,65.7,105.1,65.7,105.1z"/>
						</g>
						<g id="XMLID_135_">
							<path id="XMLID_136_" class="st6" d="M67.4,105.6C67.4,105.6,67.4,105.6,67.4,105.6c0-0.1,0-0.2,0-0.2c0-0.1,0-0.1,0-0.2
								c0,0,0-0.1-0.1-0.1c0,0,0-0.1-0.1-0.1c0,0,0,0,0,0c0,0,0,0,0,0c0,0,0,0-0.1,0c0,0-0.1,0-0.1,0.1c0,0-0.1,0.1-0.1,0.1
								c0,0,0,0.1-0.1,0.1c0,0.1-0.1,0.1-0.1,0.1c0,0,0,0.1,0,0.1s0,0,0-0.1c0,0,0-0.1,0-0.2c0-0.1,0.1-0.1,0.1-0.2
								c0,0,0.1-0.1,0.1-0.1c0,0,0.1,0,0.1,0c0,0,0.1,0,0.1,0c0,0,0.1,0.1,0.1,0.1c0,0,0,0.1,0.1,0.1c0,0.1,0,0.2,0,0.2
								C67.4,105.5,67.4,105.5,67.4,105.6C67.4,105.6,67.4,105.6,67.4,105.6z"/>
						</g>
						<g id="XMLID_133_">
							<path id="XMLID_134_" class="st6" d="M66.5,104.3C66.5,104.3,66.4,104.3,66.5,104.3c-0.1-0.1-0.1-0.1-0.2-0.1
								c0,0-0.1,0-0.1-0.1c0,0-0.1-0.1-0.1-0.1c0,0-0.1-0.1-0.2-0.1c-0.1,0-0.1,0-0.2-0.1c0,0-0.1,0-0.1,0c0,0-0.1,0-0.1,0l-0.1,0
								c0,0-0.1,0-0.1,0c0,0-0.1,0-0.1,0c0,0-0.1,0-0.1,0c-0.1,0-0.1,0-0.2,0c-0.1,0-0.1,0-0.2,0c0,0-0.1,0-0.1,0c0,0-0.1,0-0.1,0
								c-0.1,0-0.1,0-0.1,0s0,0,0.1-0.1c0,0,0-0.1,0.1-0.1c0,0,0.1-0.1,0.1-0.1c0,0,0.1-0.1,0.2-0.1c0.1,0,0.1-0.1,0.2-0.1
								c0.1,0,0.2,0,0.2,0c0,0,0.1,0,0.1,0l0.1,0c0.1,0,0.2,0.1,0.2,0.1c0.1,0,0.1,0.1,0.2,0.1c0.1,0,0.1,0.1,0.2,0.1
								c0,0,0.1,0.1,0.1,0.1C66.4,104.1,66.4,104.1,66.5,104.3C66.5,104.3,66.5,104.3,66.5,104.3z"/>
						</g>
						<g id="XMLID_131_">
							<path id="XMLID_132_" class="st6" d="M66.9,104.6C66.9,104.6,66.9,104.5,66.9,104.6c0-0.1,0.1-0.1,0.1-0.2
								c0,0,0.1-0.1,0.2-0.1c0,0,0.1,0,0.1,0c0,0,0,0,0.1,0l0.1,0c0,0,0.1,0,0.1,0c0,0,0.1,0,0.1,0c0,0,0,0,0.1,0c0,0,0,0,0.1,0.1
								c0,0,0,0.1,0.1,0.1c0,0,0,0.1,0,0.1c0,0,0,0.1,0,0.1c0,0,0,0,0,0.1c0,0,0,0.1,0,0.1s0,0,0,0c0,0,0,0,0,0c0,0,0,0,0-0.1
								c0,0,0,0-0.1-0.1c0,0,0,0-0.1,0c0,0,0,0,0,0c0,0,0,0,0,0c0,0,0,0,0,0c0,0,0,0,0,0c0,0,0,0-0.1,0c0,0-0.1,0-0.1,0
								c-0.1,0-0.1,0-0.2,0C67.1,104.6,67,104.6,66.9,104.6C66.9,104.6,66.9,104.6,66.9,104.6z"/>
						</g>
					</g>
					<g id="XMLID_123_">
						<g id="XMLID_128_">
							<path id="XMLID_129_" class="st1" d="M68.2,103.1c0,0,0.3-2.4-1.5-3.3c-1.8-0.9-4.5-0.3-5,2.7L68.2,103.1z"/>
						</g>
						<g id="XMLID_126_" class="st11">
							<path id="XMLID_19_" class="st13" d="M68.2,103.1c0,0,0.3-2.4-1.5-3.3c-1.8-0.9-4.5-0.3-5,2.7L68.2,103.1z"/>
						</g>
						<g id="XMLID_124_">
							<path id="XMLID_125_" class="st1" d="M61.8,102.5c0,0,7.4,2.2,8.3,1.5c0.5-0.4-1.1-1.1-1.7-1.3
								C67.8,103,61.8,102.5,61.8,102.5z"/>
						</g>
					</g>
				</g>
				<g id="XMLID_91_">
					<g id="XMLID_117_">
						<g id="XMLID_120_">
							<path id="XMLID_121_" class="st1" d="M65.4,109.3c-0.7-1-4.2-3.2-4.2-3.2c-0.6,0.8-1,1.4-1.3,1.8c-2.5,0.9-4.8,4.2-6.7,10.5
								c0,0,4.7,2.4,8.9,2.3c0,0,2.8-6.8,2.3-10.5L65.4,109.3z"/>
						</g>
						<g id="XMLID_118_" class="st11">
							<path id="XMLID_7_" class="st13" d="M65.4,109.3c-0.7-1-4.2-3.2-4.2-3.2c-0.6,0.8-1,1.4-1.3,1.8c-2.5,0.9-4.8,4.2-6.7,10.5
								c0,0,4.7,2.4,8.9,2.3c0,0,2.8-6.8,2.3-10.5L65.4,109.3z"/>
						</g>
					</g>
					<g id="XMLID_100_">
						<g id="XMLID_112_">
							<g id="XMLID_115_">
								<path id="XMLID_116_" class="st14" d="M60.3,107.1c0,0,2.8,0.2,3.1,2.9c0.4,2.7-1.4,9.2-9.2,6.8l0.1-0.8
									c0,0,4.4,1.4,7.2-1.6c2.8-2.9-2.3-6.7-2.3-6.7L60.3,107.1z"/>
							</g>
							<g id="XMLID_113_" class="st23">
								<path id="XMLID_6_" class="st10" d="M60.3,107.1c0,0,2.8,0.2,3.1,2.9c0.4,2.7-1.4,9.2-9.2,6.8l0.5-0.7c0,0,4,1.2,6.8-1.6
									c2.8-2.9-2.1-6.3-2.1-6.3L60.3,107.1z"/>
							</g>
						</g>
						<g id="XMLID_101_">
							<g id="XMLID_107_">
								<g id="XMLID_110_">
									<path id="XMLID_111_" class="st14" d="M53.8,117.4c0,0-5-2-7.3-3.6c0,0,3.7-7.9,6-11c0,0,5.5,2.5,7.7,4.3
										C60.3,107.1,56,114.7,53.8,117.4z"/>
								</g>
								<g id="XMLID_108_" class="st23">
									<path id="XMLID_4_" class="st10" d="M54,103.5c-0.9-0.4-1.5-0.7-1.5-0.7c-2.3,3.1-6,11-6,11c0.6,0.4,1.3,0.8,2.1,1.3
										C50.4,111.2,52.3,107.4,54,103.5z"/>
								</g>
							</g>
							<g id="XMLID_102_">
								<g id="XMLID_105_">
									<polygon id="XMLID_106_" class="st14" points="52,103.6 53.1,104.2 48.2,114 48.4,114.2 53.4,104.1 52.1,103.4 									
										"/>
								</g>
								<g id="XMLID_103_">
									<polygon id="XMLID_104_" class="st14" points="51.7,105.4 52.8,104.3 52.9,104.5 52,105.8 									"/>
								</g>
							</g>
						</g>
					</g>
					<g id="XMLID_92_">
						<g id="XMLID_95_">
							<g id="XMLID_98_">
								<path id="XMLID_99_" class="st6" d="M69.2,123.5c0,0-1.4-0.6-2.2-1.9l1.4-0.5c0,0,0.6,0.9,1.5,1.4L69.2,123.5z"/>
							</g>
							<g id="XMLID_96_">
								<path id="XMLID_97_" class="st6" d="M71.3,123c0,0,0.4,0.8,0.2,1.2c-0.2,0.4-0.3-0.1-0.3-0.1s0.1,0.5-0.5,0.4L71.3,123z"/>
							</g>
						</g>
						<g id="XMLID_93_">
							<path id="XMLID_94_" class="st1" d="M58.3,110.9c0,0-0.2-3.8,2.6-2.6c2.3,1,2.8,7.1,4.7,9l4.3,4.8l-1.8,1.2
								c0,0-3.5-1.9-6-4.6C59.7,116.1,58.3,110.9,58.3,110.9z"/>
						</g>
					</g>
				</g>
			</g>
		</g>
	</g>
</g>
</svg>
