<?xml version="1.0" encoding="utf-8"?>
<!-- Generator: Adobe Illustrator 19.0.0, SVG Export Plug-In . SVG Version: 6.00 Build 0)  -->
<svg version="1.1" id="Layer_1" xmlns="http://www.w3.org/2000/svg" xmlns:xlink="http://www.w3.org/1999/xlink" x="0px" y="0px"
	 viewBox="-204 74.6 550.6 412.4" style="enable-background:new -204 74.6 550.6 412.4;" xml:space="preserve">
<style type="text/css">
	.st0{fill:#2E2E43;}
	.st1{fill:#FFFFFF;stroke:#BAB7C9;stroke-width:2;stroke-linecap:round;stroke-linejoin:round;}
	.st2{fill:#6A1B9A;}
	.st3{fill:none;stroke:#BAB7C9;stroke-width:2;stroke-linecap:round;stroke-linejoin:round;}
	.st4{fill:#F1A1A4;}
	.st5{fill:#2F2E43;}
</style>
<path class="st0" d="M346.6,485.8c0,0.7-0.5,1.2-1.2,1.2h-548.2c-0.7,0-1.2-0.5-1.2-1.2s0.5-1.2,1.2-1.2h548.2
	C346.1,484.6,346.6,485.2,346.6,485.8z"/>
<path class="st1" d="M232.7,159.3H-89.9c-4.5,0-8.1-3.6-8.1-8.1v-24.9c0-4.5,3.6-8.1,8.1-8.1h322.6c4.5,0,8.1,3.6,8.1,8.1v24.9
	C240.7,155.7,237.1,159.3,232.7,159.3z"/>
<path class="st1" d="M232.7,312.5H-89.9c-4.5,0-8.1-3.6-8.1-8.1v-24.9c0-4.5,3.6-8.1,8.1-8.1h322.6c4.5,0,8.1,3.6,8.1,8.1v24.9
	C240.7,308.9,237.1,312.5,232.7,312.5z"/>
<path class="st2" d="M3.7,422.5h-94.6c-4.5,0-8.1-3.6-8.1-8.1v-24.9c0-4.5,3.6-8.1,8.1-8.1H3.7c4.5,0,8.1,3.6,8.1,8.1v24.9
	C11.7,418.9,8.1,422.5,3.7,422.5z"/>
<line class="st3" x1="-97.3" y1="75.6" x2="-26.6" y2="75.6"/>
<line class="st3" x1="-97.3" y1="228.8" x2="34.1" y2="228.8"/>
<rect x="186.5" y="443.9" transform="matrix(-0.8425 0.5386 -0.5386 -0.8425 599.9467 731.1054)" class="st4" width="13.2" height="18.7"/>
<polygon class="st4" points="158.3,229.7 144.3,234.5 144.1,214.2 156.9,214 "/>
<circle class="st4" cx="145.7" cy="205.7" r="14.1"/>
<path class="st5" d="M149.6,204.3c-2.3,0-3.9-2.4-4.9-4.6c-0.9-2.2-1.9-4.6-4.1-5.5c-1.8-0.7-4.9,4.3-6.3,3
	c-1.5-1.4-0.1-8.4,1.4-9.7s3.7-1.6,5.7-1.7c4.9-0.3,9.8,0.1,14.6,1c3,0.6,6,1.5,8.2,3.6c2.7,2.7,3.5,6.8,3.7,10.6
	c0.2,3.9,0.1,8-1.8,11.5c-1.9,3.5-5.8,6-9.7,5.2c-0.4-2.1,0-4.2,0.1-6.3c0.1-2.1-0.1-4.4-1.4-6.1s-4.1-2.3-5.6-0.8"/>
<path class="st5" d="M166.9,209c1.4-1,3.1-1.9,4.8-1.7c1.9,0.2,3.5,1.7,4,3.5s0,3.8-1.2,5.3s-2.8,2.5-4.7,3c-1.1,0.3-2.2,0.4-3.2,0
	c-1.5-0.6-2.3-2.5-1.7-4"/>
<path id="uuid-31bdf68e-d938-48b7-86ad-7ba8e8b265d3-91-89-41-260" class="st4" d="M114.6,341.7c-0.9,4.6,0.9,8.8,3.9,9.4
	c3.1,0.6,6.3-2.8,7.1-7.4c0.4-1.8,0.3-3.7-0.2-5.6l10.8-72.5l-14.6-2.6l-4.8,73.5C115.7,338.1,114.9,339.9,114.6,341.7L114.6,341.7
	L114.6,341.7L114.6,341.7L114.6,341.7z"/>
<path class="st2" d="M144,225.1l-9.9,0.1c-7,1.1-8.9,4.9-10.4,11.8c-2.3,10.6-5.3,24.6-4.7,24.8c1,0.3,18,8.1,26.6,6.2L144,225.1
	L144,225.1L144,225.1z"/>
<rect x="143.1" y="455.6" transform="matrix(-0.9999 1.116988e-002 -1.116988e-002 -0.9999 304.6324 928.2064)" class="st4" width="13.2" height="18.7"/>
<path class="st5" d="M130.5,485.9c-1.4,0-2.6,0-3.6-0.1c-3.5-0.3-6.9-2.8-8.6-4.3c-0.8-0.7-1-1.8-0.6-2.7l0,0
	c0.3-0.7,0.8-1.2,1.5-1.4l9.2-2.7l14.9-10.3l0.2,0.3c0.1,0.1,1.6,2.7,2.1,4.5c0.2,0.7,0.2,1.2-0.1,1.7c-0.2,0.3-0.5,0.5-0.7,0.6
	c0.3,0.3,1.1,0.8,3.8,1.2c3.8,0.6,4.6-3.4,4.6-3.6l0-0.1l0.1-0.1c1.8-1.2,2.9-1.7,3.3-1.6c0.2,0.1,0.6,0.2,1.8,11
	c0.1,0.3,0.9,2.8,0.4,5.2c-0.5,2.6-11.8,1.8-14.1,1.6C144.7,485.1,136.2,485.8,130.5,485.9L130.5,485.9L130.5,485.9L130.5,485.9
	L130.5,485.9z"/>
<path class="st5" d="M179.2,482.8c-1.6,0-3-0.2-4-0.3c-1-0.2-1.8-1-2-2l0,0c-0.1-0.7,0.1-1.4,0.6-2l6.4-7.2l7.2-16.6l0.3,0.2
	c0.1,0.1,2.8,1.5,4.2,2.7c0.5,0.5,0.8,1,0.8,1.5c0,0.4-0.1,0.7-0.3,0.9c0.4,0.1,1.4,0.1,3.8-0.9c3.5-1.5,2.1-5.3,2-5.5l-0.1-0.1
	l0.1-0.1c0.9-2,1.6-3,1.9-3.1c0.2-0.1,0.6-0.2,7.4,8.3c0.3,0.2,2.3,1.9,3.1,4.2c0.9,2.5-9.1,7.8-11.1,8.9c-0.1,0.1-10.5,7.8-14.8,10
	C183.1,482.4,181,482.7,179.2,482.8L179.2,482.8L179.2,482.8L179.2,482.8L179.2,482.8z"/>
<path class="st5" d="M164.2,298.7l-37,0.4l-3,34.4l16.1,126.9l18.9-0.2l-8.4-73.3l31.4,65.9l16.6-11.9l-24.6-61.6
	c0,0,7.9-54,1.1-67.3C168.5,298.7,164.2,298.7,164.2,298.7L164.2,298.7L164.2,298.7L164.2,298.7L164.2,298.7z"/>
<polygon class="st2" points="182.6,300.6 123.9,301.3 140.6,225.2 166.2,224.9 "/>
<path id="uuid-0d1d7be6-7e67-43a2-9b15-a4bbed67d7bc-92-90-42-261" class="st4" d="M188.3,340.9c1,4.6-0.7,8.8-3.7,9.5
	c-3,0.6-6.3-2.6-7.3-7.2c-0.4-1.8-0.4-3.7,0.1-5.6L165,265.4l14.5-2.9l6.4,73.4C187.1,337.3,187.9,339.1,188.3,340.9L188.3,340.9
	L188.3,340.9L188.3,340.9z"/>
<path class="st2" d="M156.3,225l9.9-0.1c7,1,9,4.7,10.6,11.6c2.5,10.5,5.8,24.5,5.2,24.7c-1,0.3-17.8,8.5-26.4,6.7L156.3,225
	L156.3,225z"/>
</svg>
